<?xml version="1.0" encoding="utf-8"?>
<!-- Generator: Adobe Illustrator 22.1.0, SVG Export Plug-In . SVG Version: 6.00 Build 0)  -->
<svg version="1.1" xmlns="http://www.w3.org/2000/svg" xmlns:xlink="http://www.w3.org/1999/xlink" x="0px" y="0px"
	 viewBox="0 0 1247.8 2000" style="enable-background:new 0 0 1247.8 2000;" xml:space="preserve">
<style type="text/css">
	.st0{fill:#D3DFFF;}
	.st1{fill:#FFFFFF;}
	.st2{fill:#102048;}
	.st3{fill:#FBC343;}
	.st4{fill:#F9B384;}
	.st5{fill:#E49B31;}
	.st6{fill:#E28B6D;}
	.st7{fill:#3A6BEA;}
	.st8{opacity:0.8;}
	.st9{opacity:0.4;fill:#EB5D60;}
	.st10{fill:#1F3C88;}
</style>
<g id="BACKGROUND">
</g>
<g id="OBJECTS">
	<g>
		<g>
			<g>
				
					<ellipse transform="matrix(0.1842 -0.9829 0.9829 0.1842 -9.1688 989.5909)" class="st0" cx="591.6" cy="500.3" rx="46.6" ry="46.6"/>
				
					<ellipse transform="matrix(0.1842 -0.9829 0.9829 0.1842 -64.5416 1105.58)" class="st0" cx="633.7" cy="591.7" rx="26.2" ry="26.4"/>
				<g>
					
						<ellipse transform="matrix(0.7071 -0.7071 0.7071 0.7071 -48.1417 414.6482)" class="st0" cx="476.5" cy="265.4" rx="183.7" ry="183.7"/>
					<g>
						<circle class="st1" cx="405.9" cy="265.4" r="23.1"/>
						<circle class="st1" cx="476.5" cy="265.4" r="23.1"/>
						<circle class="st1" cx="547" cy="265.4" r="23.1"/>
					</g>
				</g>
			</g>
			<g>
				<g>
					<g>
						<path class="st2" d="M344.9,1768.8L362,1835c4.5,17.3,21.2,28.9,39.6,27.7c56.3-3.8,173.2-17.6,240.3-67.1l-19.1-95.4
							c-92.3-5.2-178.5-0.1-253.3,25.1C350.9,1731.6,340.1,1750.3,344.9,1768.8z"/>
						<path class="st1" d="M452.4,1821.5c-1,0-1.9-0.6-2.1-1.6l-23-82.5c-0.3-1.2,0.4-2.4,1.5-2.7c1.2-0.3,2.4,0.4,2.7,1.5l23,82.5
							c0.3,1.2-0.4,2.4-1.5,2.7C452.8,1821.4,452.6,1821.5,452.4,1821.5z"/>
						<path class="st1" d="M502.2,1810.3c-1,0-1.9-0.6-2.1-1.6l-23-82.5c-0.3-1.2,0.4-2.4,1.5-2.7c1.2-0.3,2.4,0.4,2.7,1.5l23,82.5
							c0.3,1.2-0.4,2.4-1.5,2.7C502.6,1810.3,502.4,1810.3,502.2,1810.3z"/>
					</g>
					<polygon class="st3" points="560,1411.2 345.6,1474.8 504.9,1693 733.5,1711.2 1048.8,1577.8 929,1397.5 					"/>
					<path class="st3" d="M824.4,1441.5c470.9-139.4,546.6,276.8-188.2,352.6c-26-29.2-56.3-79.9-68.3-122.2l388-179.3L824.4,1441.5
						z"/>
					<path class="st4" d="M844.4,1739.7c-22-7.1-43.1-21-43.1-21l-75.7,23.7l17.3,82.3l78.6,16C845.5,1797,846.9,1761,844.4,1739.7z
						"/>
					<path class="st5" d="M569.6,1674.7l-3.4-5.8c80.9-47,288.3-160.1,464.9-193.4l1.2,6.6C856.8,1515.2,650.3,1627.8,569.6,1674.7z
						"/>
					<path class="st3" d="M560,1411.2c-438.3-83.3-551.9,337.9,182.9,413.7c26-29.2,46.3-63.7,58.3-106.1
						c-112.9-75.5-239.1-147.3-377.4-215.7L560,1411.2z"/>
					<path class="st5" d="M799.5,1721.6c-20.9-13.3-42.6-27.3-65.6-42.2c-115.5-74.6-246.3-159.1-357.5-207.2l2.7-6.1
						c111.7,48.4,242.8,133.1,358.5,207.8c23,14.8,44.7,28.9,65.5,42.1L799.5,1721.6z"/>
					<path class="st5" d="M238.4,1620l-5.9-3.2c16.5-29.8,42.8-49.9,78.3-59.7l1.8,6.4C278.5,1573,254.2,1591.5,238.4,1620z"/>
					<path class="st5" d="M1153.3,1594.7c-15.8-28.5-40.1-47-74.3-56.5l1.8-6.4c35.5,9.8,61.9,29.9,78.3,59.7L1153.3,1594.7z"/>
					<path class="st5" d="M701.9,1821.1l-4.9-4.6c35.1-37.6,56.6-77.2,65.8-121.2l6.5,1.4C759.9,1742,737.8,1782.7,701.9,1821.1z"/>
					<g>
						<path class="st2" d="M1063,1715.2c-56.2-34.7-165,25.3-192.4,28.3c-8,0.9-17.2-0.9-26.2-3.8c2.5,21.3,1.1,57.2-22.8,101.1
							l13.4,2.7c0,0,92.3,33.8,190.3,14.1C1115.6,1839.5,1107.2,1742.5,1063,1715.2z"/>
						<path class="st1" d="M986.5,1828.7c-0.2,0-0.4,0-0.7-0.1c-1.2-0.4-1.8-1.6-1.5-2.8c6.7-21.1,9.6-62.7-9.7-90.6
							c-0.7-1-0.4-2.4,0.6-3.1c1-0.7,2.4-0.5,3.1,0.6c20.2,29.2,17.3,72.5,10.3,94.5C988.3,1828.1,987.4,1828.7,986.5,1828.7z"/>
						<path class="st1" d="M942.4,1837.1c-0.2,0-0.4,0-0.7-0.1c-1.2-0.4-1.8-1.6-1.5-2.8c6.7-21.1,9.6-62.7-9.7-90.6
							c-0.7-1-0.4-2.4,0.6-3.1c1-0.7,2.4-0.5,3.1,0.6c20.2,29.2,17.3,72.5,10.3,94.5C944.3,1836.5,943.4,1837.1,942.4,1837.1z"/>
					</g>
				</g>
				<g>
					<g>
						<path class="st4" d="M482.5,868c0,0,110.4-93.9,106.3-111.7c-2.9-12.7-34.2,5.9-34.2,5.9s43.9-52,41.6-58.3
							c-4-11.3-34.3,9.8-34.3,9.8s20.5-29.5,10.7-34.3c-9.8-4.8-31.2,13.4-31.2,13.4s12.5-16.4,6.6-20.7
							c-5.9-4.3-31.2,13.4-31.2,13.4s9.1-20.7-10.2-12.8c-19.3,7.8-154.5,132-154.5,132L482.5,868z"/>
						<g>
							<path class="st6" d="M527.7,756.7c-0.5,0-1.1-0.2-1.5-0.6c-18.9-17.3-27.3-21.5-48.2-27.9c-1.2-0.4-1.8-1.6-1.5-2.8
								c0.4-1.2,1.6-1.8,2.8-1.5c21.7,6.7,30.3,11,49.9,28.9c0.9,0.8,1,2.2,0.1,3.1C528.9,756.4,528.3,756.7,527.7,756.7z"/>
							<path class="st6" d="M494.4,807.6c-0.1,0-0.2,0-0.3,0c-1.2-0.2-2.1-1.3-1.9-2.5c2.2-15.5,7.1-25.2,14.9-29.7
								c6.7-3.8,15.5-3.4,26.1,1.2c1.1,0.5,1.7,1.8,1.2,2.9c-0.5,1.1-1.8,1.7-2.9,1.2c-9.2-4-16.6-4.4-22.1-1.4
								c-6.5,3.7-10.8,12.5-12.7,26.4C496.5,806.8,495.5,807.6,494.4,807.6z"/>
							<path class="st6" d="M489.2,713.7c-0.6,0-1.2-0.2-1.6-0.7c-0.8-0.9-0.8-2.3,0.1-3.2l27.7-26.1c0.9-0.8,2.3-0.8,3.2,0.1
								c0.8,0.9,0.8,2.3-0.1,3.2l-27.7,26.1C490.3,713.5,489.8,713.7,489.2,713.7z"/>
							<path class="st6" d="M514.8,722.7c-0.6,0-1.1-0.2-1.5-0.6c-0.9-0.9-0.9-2.3-0.1-3.2l26.6-27.7c0.9-0.9,2.3-0.9,3.2-0.1
								c0.9,0.9,0.9,2.3,0.1,3.2L516.5,722C516,722.4,515.4,722.7,514.8,722.7z"/>
							<path class="st6" d="M541,738.3c-0.5,0-1.1-0.2-1.5-0.6c-0.9-0.8-1-2.3-0.1-3.2l20.9-22.4c0.8-0.9,2.2-0.9,3.2-0.1
								c0.9,0.8,1,2.3,0.1,3.2l-20.9,22.4C542.2,738,541.6,738.3,541,738.3z"/>
						</g>
					</g>
					<g>
						<path class="st7" d="M899.5,1495.9l-403.6,15.6l-44.6-367.9c0,0,135.1-128.2,187.1-175.4l87.8-4.5
							C998.4,1087.5,953.9,1242,899.5,1495.9z"/>
						<path class="st7" d="M726.2,963.7c0,0,311.5,26.6,409.7,240.1C1232,1412.6,837.1,1487,837.1,1487L726.2,963.7z"/>
						<path class="st7" d="M370.1,1009.4l128.7-156.7l-120.4-73c-50.2,34.9-147.3,114-229.6,203.6c-18.2,19.8-32.4,42.9-39.5,68.3
							c-6.1,21.7-7.2,43.1-3.8,64.1v0c8.9,54.7,51.9,96.9,109.4,103.6c49,5.7,236.4-8.9,388-53.5l44.6-172.1
							C624.6,980.7,454.3,978.5,370.1,1009.4z"/>
					</g>
					<g class="st8">
						<path class="st1" d="M986.1,1048.4c0.7-0.2,1.3-0.3,2-0.5c-1.4-0.8-2.8-1.6-4.2-2.5c-22.8,5.3-46.4,10.6-69.6,13.4
							c-14,1.7-60.6,4.8-74.2-26.3c-6.8-15.5-1.6-32.6,6-44.7c-1.1-0.3-2.2-0.6-3.3-1c-7.9,12.8-12.9,30.7-5.7,47
							c14.5,33.2,63.1,30,77.7,28.3C938.6,1059.3,962.8,1053.8,986.1,1048.4z"/>
						<path class="st1" d="M1131.5,1289.1c-14.9-5.7-30.3-11.7-46.4-10.2c-28.4,2.7-52.6,30.7-54.1,62.5c-1,21.7,7.3,44.4,23.1,64.4
							c1-0.6,1.9-1.2,2.8-1.8c-15.4-19.4-23.5-41.4-22.6-62.4c1.4-30.2,24.3-56.8,51.1-59.3c15.4-1.4,29.7,4.1,44.9,10
							c5.4,2.1,10.9,4.2,16.5,6c0.3-1.1,0.6-2.2,0.8-3.2C1142.2,1293.2,1136.8,1291.2,1131.5,1289.1z"/>
						<path class="st1" d="M345.2,1182.7c-19.4-16.1-49.7-20.4-82.9-11.8c-29.6,7.7-55,22.8-72.5,42.9c1.1,0.4,2.3,0.8,3.4,1.1
							c17-19,41.4-33.4,69.9-40.8c32.2-8.3,61.3-4.3,79.9,11.1c8.8,7.3,15.1,16.8,19.7,27.1c1.1-0.1,2.3-0.3,3.5-0.4
							C361.5,1200.9,354.8,1190.6,345.2,1182.7z"/>
						<path class="st1" d="M169.4,961.5c36.4-9.1,72-21.8,104.8-40.7c12.4-7.1,26.4-16.2,36.2-29.6c10.5-14.2,13.9-31.1,9.3-45.3
							c-1.8-5.5-5-10.4-9.1-14.3c-0.9,0.7-1.7,1.4-2.6,2.1c3.8,3.6,6.8,8.1,8.5,13.2c4.3,13.1,1,28.9-8.8,42.3
							c-9.5,12.9-23.1,21.7-35.2,28.7c-30.9,17.8-64.4,30.1-98.8,39C172.3,958.5,170.9,960,169.4,961.5z"/>
					</g>
					<g>
						<path class="st4" d="M754.7,881.9l-0.1,5.7l-0.9,88.7l-0.1,9.6c-0.2,15-6.3,28.7-16.3,38.6c-9.9,9.8-23.5,16-38.6,16.1
							c-30.4,0.2-55.3-24.3-55.6-54.7L642,876.2L754.7,881.9z"/>
						<path class="st2" d="M754.6,887.6l-0.9,88.7c-49.3-20.1-69.6-73.4-69.6-73.4L754.6,887.6z"/>
						<path class="st4" d="M774.1,732.8c17.7,21.2,69.3,141.4,17,182.3c-58.9,46.1-148.4-29.7-148.4-29.7l-12-139.9l77.7-20.5
							L774.1,732.8z"/>
						<path class="st2" d="M591,725.1c0,0-172.4,89.9-31.8,349.2c18.1,33.3,58.1,47.8,92.3,31.6h0c36.7-17.4,50.6-62.3,30.7-97.7
							c-23-40.9-45.2-93.5-35.7-132.6L591,725.1z"/>
						
							<ellipse transform="matrix(0.7071 -0.7071 0.7071 0.7071 -364.9374 654.282)" class="st3" cx="607.3" cy="767.7" rx="46.6" ry="46.6"/>
						<path class="st2" d="M664.7,823.7c-5-29.1-8.1-49.1,21.3-64.1c0,0,103.7,18.8,123.5-20.3c19.8-39.1-10.4-100.8-73.5-58
							c-161.6-31.6-183.3,119.7-134.3,170.1l48.4-7.4C659.8,842.6,666.4,833.4,664.7,823.7z"/>
						<g>
							<circle class="st2" cx="745" cy="823.8" r="6.9"/>
							<circle class="st2" cx="791.6" cy="800.8" r="6.9"/>
							<path class="st2" d="M786.8,845c-0.5,0-1-0.2-1.3-0.5c-0.8-0.7-0.8-2-0.1-2.8c2.8-2.9,5.8-7,4.5-10c-1.3-3.1-6.9-4.4-9.5-4.4
								c-5.5,0-8.1-9.8-8.6-11.7c-0.3-1,0.4-2.1,1.4-2.4c1-0.3,2.1,0.4,2.4,1.4c1,4.1,3.3,8.8,4.8,8.8c2.6,0,10.7,1.2,13.1,6.8
								c1.7,3.9-0.1,8.7-5.3,14.2C787.9,844.8,787.4,845,786.8,845z"/>
							<path class="st2" d="M787.2,871.2c-0.4,0-0.8-0.1-1.1-0.3c-13-8.8-26.1-1.4-26.2-1.3c-0.9,0.5-2.1,0.2-2.7-0.7
								c-0.5-0.9-0.2-2.1,0.7-2.7c0.6-0.4,15.4-8.6,30.3,1.5c0.9,0.6,1.1,1.8,0.5,2.7C788.4,870.9,787.8,871.2,787.2,871.2z"/>
							<path class="st2" d="M741.9,793.9c3.9,7.4-2.9,8.9-10.9,13.1c-8,4.3-16.2,5.8-18.1,2.3c-1.9-3.5,3.1-9.8,11.1-14.1
								C732.1,791,738.9,788.2,741.9,793.9z"/>
							<path class="st2" d="M771.1,780.6c1.7,6.6,6.6,3.7,13.8,1.8s12.9-5.5,12.1-8.6c-0.8-3.1-7.3-4.2-14.4-2.3
								C775.4,773.4,769.8,775.5,771.1,780.6z"/>
						</g>
						
							<ellipse transform="matrix(0.7351 -0.678 0.678 0.7351 -391.3843 710.2554)" class="st9" cx="713.2" cy="855.9" rx="20.3" ry="20.3"/>
						
							<ellipse transform="matrix(0.6109 -0.7917 0.7917 0.6109 -430.2534 836.5431)" class="st4" cx="636" cy="856" rx="27.5" ry="31.3"/>
						<path class="st2" d="M648.1,866.2c-1.1,0-2-0.9-2-2c0-5.8-2.8-11.1-7.5-14.2c-4-2.7-8.8-3.3-12.8-1.7c-1,0.4-2.1-0.1-2.5-1.1
							c-0.4-1,0.1-2.1,1.1-2.5c5.2-2.1,11.4-1.4,16.5,2.1c5.8,3.9,9.2,10.4,9.2,17.5C650,865.3,649.2,866.2,648.1,866.2z"/>
					</g>
					<g>
						
							<rect x="283" y="1045.3" transform="matrix(0.6788 -0.7343 0.7343 0.6788 -661.6334 582.3271)" class="st2" width="103.7" height="4.5"/>
						<path class="st2" d="M864.5,1335.2l-1.3-4.3c51.3-15.6,101-34.3,146.1-90.7l3.5,2.8C966.9,1300.4,916.4,1319.4,864.5,1335.2z"
							/>
					</g>
				</g>
				<g>
					<g>
						<path class="st0" d="M895.6,1162.5h-436c-15.7,0-28.4,13.8-28.4,30.7v311.3c0,17,12.7,30.7,28.4,30.7h436
							c15.7,0,28.4-13.8,28.4-30.7v-311.3C924,1176.3,911.3,1162.5,895.6,1162.5z"/>
					</g>
					<g>
						<path class="st10" d="M700.6,1329.2c1.7,0,3,1.5,3,3.2v32.9c0,1.8-1.3,3.2-3,3.2h-46c-1.7,0-3-1.5-3-3.2v-32.9
							c0-1.8,1.3-3.2,3-3.2H700.6 M700.6,1320.3h-46c-6.6,0-11.9,5.5-11.9,12.2v32.9c0,6.7,5.3,12.2,11.9,12.2h46
							c6.6,0,11.9-5.5,11.9-12.2v-32.9C712.6,1325.8,707.2,1320.3,700.6,1320.3L700.6,1320.3z"/>
					</g>
				</g>
			</g>
		</g>
	</g>
</g>
</svg>
